<?xml version="1.0" encoding="UTF-8"?>
<!--Generator: Apple Native CoreSVG 329.6-->
<!DOCTYPE svg
PUBLIC "-//W3C//DTD SVG 1.1//EN"
       "http://www.w3.org/Graphics/SVG/1.1/DTD/svg11.dtd">
<svg version="1.1" xmlns="http://www.w3.org/2000/svg" xmlns:xlink="http://www.w3.org/1999/xlink" viewBox="0 0 3300 2200">
 <!--glyph: "", point size: 100.0, font version: "20.0d8e1", template writer version: "138.0.0"-->
 <style>.monochrome-0 {-sfsymbols-motion-group:1;-sfsymbols-layer-tags:382948fc47f98960 6173be8bf2786922 house.fill}
.monochrome-1 {opacity:0.0;-sfsymbols-clear-behind:true;-sfsymbols-motion-group:0;-sfsymbols-layer-tags:6173be8bf2786922 _badge gearshape.fill}
.monochrome-2 {-sfsymbols-motion-group:0;-sfsymbols-always-pulses:true;-sfsymbols-layer-tags:6173be8bf2786922 _badge gearshape.fill}

.multicolor-0:labelColor {-sfsymbols-motion-group:1;-sfsymbols-layer-tags:382948fc47f98960 6173be8bf2786922 house.fill}
.multicolor-1:tintColor {opacity:0.0;-sfsymbols-clear-behind:true;-sfsymbols-motion-group:0;-sfsymbols-layer-tags:6173be8bf2786922 _badge gearshape.fill}
.multicolor-2:tintColor {-sfsymbols-motion-group:0;-sfsymbols-always-pulses:true;-sfsymbols-layer-tags:6173be8bf2786922 _badge gearshape.fill}

.hierarchical-0:secondary {-sfsymbols-motion-group:1;-sfsymbols-layer-tags:382948fc47f98960 6173be8bf2786922 house.fill}
.hierarchical-1:primary {opacity:0.0;-sfsymbols-clear-behind:true;-sfsymbols-motion-group:0;-sfsymbols-layer-tags:6173be8bf2786922 _badge gearshape.fill}
.hierarchical-2:primary {-sfsymbols-motion-group:0;-sfsymbols-layer-tags:6173be8bf2786922 _badge gearshape.fill}

.SFSymbolsPreviewWireframe {fill:none;opacity:1.0;stroke:black;stroke-width:0.5}
</style>
 <g id="Notes">
  <rect height="2200" id="artboard" style="fill:white;opacity:1" width="3300" x="0" y="0"/>
  <line style="fill:none;stroke:black;opacity:1;stroke-width:0.5;" x1="263" x2="3036" y1="292" y2="292"/>
  <text style="stroke:none;fill:black;font-family:sans-serif;font-size:13;font-weight:bold;" transform="matrix(1 0 0 1 263 322)">Weight/Scale Variations</text>
  <text style="stroke:none;fill:black;font-family:sans-serif;font-size:13;text-anchor:middle;" transform="matrix(1 0 0 1 559.711 322)">Ultralight</text>
  <text style="stroke:none;fill:black;font-family:sans-serif;font-size:13;text-anchor:middle;" transform="matrix(1 0 0 1 856.422 322)">Thin</text>
  <text style="stroke:none;fill:black;font-family:sans-serif;font-size:13;text-anchor:middle;" transform="matrix(1 0 0 1 1153.13 322)">Light</text>
  <text style="stroke:none;fill:black;font-family:sans-serif;font-size:13;text-anchor:middle;" transform="matrix(1 0 0 1 1449.84 322)">Regular</text>
  <text style="stroke:none;fill:black;font-family:sans-serif;font-size:13;text-anchor:middle;" transform="matrix(1 0 0 1 1746.56 322)">Medium</text>
  <text style="stroke:none;fill:black;font-family:sans-serif;font-size:13;text-anchor:middle;" transform="matrix(1 0 0 1 2043.27 322)">Semibold</text>
  <text style="stroke:none;fill:black;font-family:sans-serif;font-size:13;text-anchor:middle;" transform="matrix(1 0 0 1 2339.98 322)">Bold</text>
  <text style="stroke:none;fill:black;font-family:sans-serif;font-size:13;text-anchor:middle;" transform="matrix(1 0 0 1 2636.69 322)">Heavy</text>
  <text style="stroke:none;fill:black;font-family:sans-serif;font-size:13;text-anchor:middle;" transform="matrix(1 0 0 1 2933.4 322)">Black</text>
  <line style="fill:none;stroke:black;opacity:1;stroke-width:0.5;" x1="263" x2="3036" y1="1903" y2="1903"/>
  <g transform="matrix(0.2 0 0 0.2 263 1933)">
   <path d="m46.2402 4.15039c21.7773 0 39.4531-17.627 39.4531-39.4043s-17.6758-39.4043-39.4531-39.4043c-21.7285 0-39.4043 17.627-39.4043 39.4043s17.6758 39.4043 39.4043 39.4043Zm0-7.42188c-17.6758 0-31.9336-14.3066-31.9336-31.9824s14.2578-31.9824 31.9336-31.9824 31.9824 14.3066 31.9824 31.9824-14.3066 31.9824-31.9824 31.9824Zm-17.9688-31.9824c0 2.14844 1.51367 3.61328 3.75977 3.61328h10.498v10.5957c0 2.19727 1.46484 3.71094 3.61328 3.71094 2.24609 0 3.71094-1.51367 3.71094-3.71094v-10.5957h10.5957c2.19727 0 3.71094-1.46484 3.71094-3.61328 0-2.19727-1.51367-3.71094-3.71094-3.71094h-10.5957v-10.5469c0-2.24609-1.46484-3.75977-3.71094-3.75977-2.14844 0-3.61328 1.51367-3.61328 3.75977v10.5469h-10.498c-2.24609 0-3.75977 1.51367-3.75977 3.71094Z"/>
  </g>
  <g transform="matrix(0.2 0 0 0.2 281.506 1933)">
   <path d="m58.5449 14.5508c27.4902 0 49.8047-22.3145 49.8047-49.8047s-22.3145-49.8047-49.8047-49.8047-49.8047 22.3145-49.8047 49.8047 22.3145 49.8047 49.8047 49.8047Zm0-8.30078c-22.9492 0-41.5039-18.5547-41.5039-41.5039s18.5547-41.5039 41.5039-41.5039 41.5039 18.5547 41.5039 41.5039-18.5547 41.5039-41.5039 41.5039Zm-22.6562-41.5039c0 2.39258 1.66016 4.00391 4.15039 4.00391h14.3555v14.4043c0 2.44141 1.66016 4.15039 4.05273 4.15039 2.44141 0 4.15039-1.66016 4.15039-4.15039v-14.4043h14.4043c2.44141 0 4.15039-1.61133 4.15039-4.00391 0-2.44141-1.70898-4.15039-4.15039-4.15039h-14.4043v-14.3555c0-2.49023-1.70898-4.19922-4.15039-4.19922-2.39258 0-4.05273 1.70898-4.05273 4.19922v14.3555h-14.3555c-2.49023 0-4.15039 1.70898-4.15039 4.15039Z"/>
  </g>
  <g transform="matrix(0.2 0 0 0.2 304.924 1933)">
   <path d="m74.8535 28.3203c35.1074 0 63.623-28.4668 63.623-63.5742s-28.5156-63.623-63.623-63.623-63.5742 28.5156-63.5742 63.623 28.4668 63.5742 63.5742 63.5742Zm0-9.08203c-30.127 0-54.4922-24.3652-54.4922-54.4922s24.3652-54.4922 54.4922-54.4922 54.4922 24.3652 54.4922 54.4922-24.3652 54.4922-54.4922 54.4922Zm-28.8574-54.4922c0 2.58789 1.85547 4.39453 4.58984 4.39453h19.7266v19.7754c0 2.68555 1.85547 4.58984 4.44336 4.58984 2.68555 0 4.54102-1.85547 4.54102-4.58984v-19.7754h19.7754c2.68555 0 4.58984-1.80664 4.58984-4.39453 0-2.73438-1.85547-4.58984-4.58984-4.58984h-19.7754v-19.7266c0-2.73438-1.85547-4.63867-4.54102-4.63867-2.58789 0-4.44336 1.9043-4.44336 4.63867v19.7266h-19.7266c-2.73438 0-4.58984 1.85547-4.58984 4.58984Z"/>
  </g>
  <text style="stroke:none;fill:black;font-family:sans-serif;font-size:13;font-weight:bold;" transform="matrix(1 0 0 1 263 1953)">Design Variations</text>
  <text style="stroke:none;fill:black;font-family:sans-serif;font-size:13;" transform="matrix(1 0 0 1 263 1971)">Symbols are supported in up to nine weights and three scales.</text>
  <text style="stroke:none;fill:black;font-family:sans-serif;font-size:13;" transform="matrix(1 0 0 1 263 1989)">For optimal layout with text and other symbols, vertically align</text>
  <text style="stroke:none;fill:black;font-family:sans-serif;font-size:13;" transform="matrix(1 0 0 1 263 2007)">symbols with the adjacent text.</text>
  <line style="fill:none;stroke:#00AEEF;stroke-width:0.5;opacity:1.0;" x1="776" x2="776" y1="1919" y2="1933"/>
  <g transform="matrix(0.2 0 0 0.2 776 1933)">
   <path d="m16.5527 0.78125c2.58789 0 3.85742-0.976562 4.78516-3.71094l6.29883-17.2363h28.8086l6.29883 17.2363c0.927734 2.73438 2.19727 3.71094 4.73633 3.71094 2.58789 0 4.24805-1.5625 4.24805-4.00391 0-0.830078-0.146484-1.61133-0.537109-2.63672l-22.9004-60.9863c-1.12305-2.97852-3.125-4.49219-6.25-4.49219-3.02734 0-5.07812 1.46484-6.15234 4.44336l-22.9004 61.084c-0.390625 1.02539-0.537109 1.80664-0.537109 2.63672 0 2.44141 1.5625 3.95508 4.10156 3.95508Zm13.4766-28.3691 11.8652-32.8613h0.244141l11.8652 32.8613Z"/>
  </g>
  <line style="fill:none;stroke:#00AEEF;stroke-width:0.5;opacity:1.0;" x1="792.836" x2="792.836" y1="1919" y2="1933"/>
  <text style="stroke:none;fill:black;font-family:sans-serif;font-size:13;font-weight:bold;" transform="matrix(1 0 0 1 776 1953)">Margins</text>
  <text style="stroke:none;fill:black;font-family:sans-serif;font-size:13;" transform="matrix(1 0 0 1 776 1971)">Leading and trailing margins on the left and right side of each symbol</text>
  <text style="stroke:none;fill:black;font-family:sans-serif;font-size:13;" transform="matrix(1 0 0 1 776 1989)">can be adjusted by modifying the x-location of the margin guidelines.</text>
  <text style="stroke:none;fill:black;font-family:sans-serif;font-size:13;" transform="matrix(1 0 0 1 776 2007)">Modifications are automatically applied proportionally to all</text>
  <text style="stroke:none;fill:black;font-family:sans-serif;font-size:13;" transform="matrix(1 0 0 1 776 2025)">scales and weights.</text>
  <g transform="matrix(0.2 0 0 0.2 1289 1933)">
   <path d="m14.209 9.32617 8.49609 8.54492c4.29688 4.3457 9.22852 4.05273 13.8672-1.07422l53.4668-58.9355-4.83398-4.88281-53.0762 58.3984c-1.75781 2.00195-3.41797 2.49023-5.76172 0.146484l-5.85938-5.81055c-2.34375-2.29492-1.80664-4.00391 0.195312-5.81055l57.373-54.0039-4.88281-4.83398-57.959 54.4434c-4.93164 4.58984-5.32227 9.47266-1.02539 13.8184Zm32.0801-90.9668c-2.09961 2.05078-2.24609 4.93164-1.07422 6.88477 1.17188 1.80664 3.4668 2.97852 6.68945 2.14844 7.32422-1.70898 14.9414-2.00195 22.0703 2.68555l-2.92969 7.27539c-1.70898 4.15039-0.830078 7.08008 1.85547 9.81445l11.4746 11.5723c2.44141 2.44141 4.49219 2.53906 7.32422 2.05078l5.32227-0.976562 3.32031 3.36914-0.195312 2.7832c-0.195312 2.49023 0.439453 4.39453 2.88086 6.78711l3.80859 3.71094c2.39258 2.39258 5.46875 2.53906 7.8125 0.195312l14.5508-14.5996c2.34375-2.34375 2.24609-5.32227-0.146484-7.71484l-3.85742-3.80859c-2.39258-2.39258-4.24805-3.17383-6.64062-2.97852l-2.88086 0.244141-3.22266-3.17383 1.2207-5.61523c0.634766-2.83203-0.146484-5.0293-3.07617-7.95898l-10.9863-10.9375c-16.6992-16.6016-38.8672-16.2109-53.3203-1.75781Zm7.4707 1.85547c12.1582-8.88672 28.6133-7.37305 39.7461 3.75977l12.1582 12.0605c1.17188 1.17188 1.36719 2.09961 1.02539 3.80859l-1.61133 7.42188 7.51953 7.42188 4.93164-0.292969c1.26953-0.0488281 1.66016 0.0488281 2.63672 1.02539l2.88086 2.88086-12.207 12.207-2.88086-2.88086c-0.976562-0.976562-1.12305-1.36719-1.07422-2.68555l0.341797-4.88281-7.4707-7.42188-7.61719 1.26953c-1.61133 0.341797-2.34375 0.195312-3.56445-0.976562l-10.0098-10.0098c-1.26953-1.17188-1.41602-2.00195-0.634766-3.85742l4.39453-10.4492c-7.8125-7.27539-17.9688-10.4004-28.125-7.42188-0.78125 0.195312-1.07422-0.439453-0.439453-0.976562Z"/>
  </g>
  <text style="stroke:none;fill:black;font-family:sans-serif;font-size:13;font-weight:bold;" transform="matrix(1 0 0 1 1289 1953)">Exporting</text>
  <text style="stroke:none;fill:black;font-family:sans-serif;font-size:13;" transform="matrix(1 0 0 1 1289 1971)">Symbols should be outlined when exporting to ensure the</text>
  <text style="stroke:none;fill:black;font-family:sans-serif;font-size:13;" transform="matrix(1 0 0 1 1289 1989)">design is preserved when submitting to Xcode.</text>
  <text id="template-version" style="stroke:none;fill:black;font-family:sans-serif;font-size:13;text-anchor:end;" transform="matrix(1 0 0 1 3036 1933)">Template v.6.0</text>
  <text style="stroke:none;fill:black;font-family:sans-serif;font-size:13;text-anchor:end;" transform="matrix(1 0 0 1 3036 1951)">Requires Xcode 16 or greater</text>
  <text id="descriptive-name" style="stroke:none;fill:black;font-family:sans-serif;font-size:13;text-anchor:end;" transform="matrix(1 0 0 1 3036 1969)">Generated from </text>
  <text style="stroke:none;fill:black;font-family:sans-serif;font-size:13;text-anchor:end;" transform="matrix(1 0 0 1 3036 1987)">Typeset at 100.0 points</text>
  <text style="stroke:none;fill:black;font-family:sans-serif;font-size:13;" transform="matrix(1 0 0 1 263 726)">Small</text>
  <text style="stroke:none;fill:black;font-family:sans-serif;font-size:13;" transform="matrix(1 0 0 1 263 1156)">Medium</text>
  <text style="stroke:none;fill:black;font-family:sans-serif;font-size:13;" transform="matrix(1 0 0 1 263 1586)">Large</text>
 </g>
 <g id="Guides">
  <g id="H-reference" style="fill:#27AAE1;stroke:none;" transform="matrix(1 0 0 1 339 696)">
   <path d="M0.993654 0L3.63775 0L29.3281-67.1323L30.0303-67.1323L30.0303-70.459L28.1226-70.459ZM11.6885-24.4799L46.9815-24.4799L46.2315-26.7285L12.4385-26.7285ZM55.1196 0L57.7637 0L30.6382-70.459L29.4326-70.459L29.4326-67.1323Z"/>
  </g>
  <line id="Baseline-S" style="fill:none;stroke:#27AAE1;opacity:1;stroke-width:0.5;" x1="263" x2="3036" y1="696" y2="696"/>
  <line id="Capline-S" style="fill:none;stroke:#27AAE1;opacity:1;stroke-width:0.5;" x1="263" x2="3036" y1="625.541" y2="625.541"/>
  <g id="H-reference" style="fill:#27AAE1;stroke:none;" transform="matrix(1 0 0 1 339 1126)">
   <path d="M0.993654 0L3.63775 0L29.3281-67.1323L30.0303-67.1323L30.0303-70.459L28.1226-70.459ZM11.6885-24.4799L46.9815-24.4799L46.2315-26.7285L12.4385-26.7285ZM55.1196 0L57.7637 0L30.6382-70.459L29.4326-70.459L29.4326-67.1323Z"/>
  </g>
  <line id="Baseline-M" style="fill:none;stroke:#27AAE1;opacity:1;stroke-width:0.5;" x1="263" x2="3036" y1="1126" y2="1126"/>
  <line id="Capline-M" style="fill:none;stroke:#27AAE1;opacity:1;stroke-width:0.5;" x1="263" x2="3036" y1="1055.54" y2="1055.54"/>
  <g id="H-reference" style="fill:#27AAE1;stroke:none;" transform="matrix(1 0 0 1 339 1556)">
   <path d="M0.993654 0L3.63775 0L29.3281-67.1323L30.0303-67.1323L30.0303-70.459L28.1226-70.459ZM11.6885-24.4799L46.9815-24.4799L46.2315-26.7285L12.4385-26.7285ZM55.1196 0L57.7637 0L30.6382-70.459L29.4326-70.459L29.4326-67.1323Z"/>
  </g>
  <line id="Baseline-L" style="fill:none;stroke:#27AAE1;opacity:1;stroke-width:0.5;" x1="263" x2="3036" y1="1556" y2="1556"/>
  <line id="Capline-L" style="fill:none;stroke:#27AAE1;opacity:1;stroke-width:0.5;" x1="263" x2="3036" y1="1485.54" y2="1485.54"/>
  <line id="right-margin-Black-S" style="fill:none;stroke:#FF3B30;stroke-width:0.5;opacity:1.0;" x1="2994.97" x2="2994.97" y1="600.785" y2="720.121"/>
  <line id="left-margin-Black-S" style="fill:none;stroke:#00AEEF;stroke-width:0.5;opacity:1.0;" x1="2871.83" x2="2871.83" y1="600.785" y2="720.121"/>
  <line id="right-margin-Regular-S" style="fill:none;stroke:#FF3B30;stroke-width:0.5;opacity:1.0;" x1="1506.24" x2="1506.24" y1="600.785" y2="720.121"/>
  <line id="left-margin-Regular-S" style="fill:none;stroke:#00AEEF;stroke-width:0.5;opacity:1.0;" x1="1393.45" x2="1393.45" y1="600.785" y2="720.121"/>
  <line id="right-margin-Ultralight-S" style="fill:none;stroke:#FF3B30;stroke-width:0.5;opacity:1.0;" x1="610.954" x2="610.954" y1="600.785" y2="720.121"/>
  <line id="left-margin-Ultralight-S" style="fill:none;stroke:#00AEEF;stroke-width:0.5;opacity:1.0;" x1="508.469" x2="508.469" y1="600.785" y2="720.121"/>
 </g>
 <g id="Symbols">
  <g id="Black-S" transform="matrix(1 0 0 1 2871.83 696)">
   <path class="monochrome-0 multicolor-0:labelColor hierarchical-0:secondary SFSymbolsPreviewWireframe" d="M50.9766-3.71094L50.9766-23.6816C50.9766-25.5859 52.2461-26.8066 54.1504-26.8066L69.043-26.8066C70.9473-26.8066 72.168-25.5859 72.168-23.6816L72.168-3.71094ZM24.2676-1.12305C24.2676 5.22461 28.9062 9.47266 35.8887 9.47266L87.1094 9.47266C94.0918 9.47266 98.7305 5.22461 98.7305-1.12305L98.7305-24.9512L64.209-53.9551C62.5488-55.3711 60.5469-55.3711 58.8867-53.9551L24.2676-24.9512ZM16.748-30.8105C18.5059-30.8105 20.459-31.5918 22.0703-32.959L58.5449-63.5254C59.5215-64.3555 60.5469-64.7949 61.5723-64.7949C62.5977-64.7949 63.623-64.3555 64.5996-63.5254L101.074-32.959C102.686-31.5918 104.639-30.8105 106.396-30.8105C110.596-30.8105 113.379-33.4473 113.379-37.4512C113.379-39.4531 112.305-41.6016 110.498-43.1152L70.7031-76.5137C67.9688-78.8086 64.7461-79.9805 61.5723-79.9805C58.3984-79.9805 55.1758-78.8086 52.4414-76.5137L12.6465-43.1152C10.8398-41.6016 9.76562-39.4531 9.76562-37.4512C9.76562-33.4473 12.5488-30.8105 16.748-30.8105ZM82.7637-62.2559L99.5605-48.291L99.5605-69.7754C99.5605-71.6797 98.3398-72.9004 96.4355-72.9004L85.9375-72.9004C84.0332-72.9004 82.7637-71.6797 82.7637-69.7754Z"/>
   <path class="monochrome-1 multicolor-1:tintColor hierarchical-1:primary SFSymbolsPreviewWireframe" d="M110.826 20.2949C125.768 20.2949 138.121 7.89255 138.121-7.04885C138.121-21.9903 125.768-34.2949 110.826-34.2949C95.8847-34.2949 83.5312-21.9903 83.5312-7.04885C83.5312 7.89255 95.8847 20.2949 110.826 20.2949Z"/>
   <path class="monochrome-2 multicolor-2:tintColor hierarchical-2:primary SFSymbolsPreviewWireframe" d="M109.068 15.0214L112.486 15.0214C114.293 15.0214 115.758 13.8496 116.148 12.1407L116.93 8.77145C117.174 8.67385 117.369 8.62495 117.565 8.52735L120.445 10.3339C121.959 11.2618 123.863 11.1153 125.182 9.79685L127.574 7.40425C128.844 6.13475 128.942 4.18165 128.014 2.66795L126.256-0.21285C126.354-0.40825 126.402-0.55465 126.5-0.75005L129.869-1.58005C131.627-2.01955 132.799-3.43555 132.799-5.24215L132.799-8.61135C132.799-10.418 131.627-11.9316 129.869-12.3222L126.549-13.1036C126.5-13.25 126.402-13.4941 126.305-13.6407L128.111-16.6191C129.039-18.1328 128.893-20.086 127.574-21.3555L125.084-23.7481C123.912-24.871 122.106-25.2129 120.592-24.2852L117.565-22.4297C117.369-22.5273 117.174-22.5761 116.979-22.6739L116.148-26.0918C115.709-27.8496 114.293-29.0214 112.486-29.0214L109.068-29.0214C107.213-29.0214 105.846-27.8496 105.406-26.043L104.576-22.7227C104.381-22.6739 104.137-22.5273 103.941-22.4297L100.914-24.2852C99.498-25.164 97.6425-24.9199 96.4218-23.7481L93.9316-21.3555C92.6132-20.1347 92.5155-18.1816 93.4433-16.6191L95.2499-13.6407C95.1034-13.4941 95.0546-13.25 94.9569-13.1036L91.6855-12.3222C89.8788-11.8828 88.7558-10.418 88.7558-8.61135L88.7558-5.24215C88.7558-3.43555 89.9276-2.01955 91.6855-1.58005L95.0546-0.75005C95.1034-0.55465 95.2011-0.40825 95.2499-0.21285L93.4921 2.66795C92.5644 4.18165 92.662 6.13475 93.9316 7.40425L96.373 9.79685C97.6425 11.0665 99.5468 11.2618 101.06 10.3339L103.99 8.52735C104.137 8.62495 104.381 8.67385 104.576 8.77145L105.406 12.1407C105.846 13.8496 107.213 15.0214 109.068 15.0214ZM110.777-0.84765C107.457-0.84765 104.674-3.63085 104.674-7.00005C104.674-10.3203 107.457-13.1036 110.777-13.1036C114.098-13.1036 116.93-10.3203 116.93-7.00005C116.93-3.63085 114.098-0.84765 110.777-0.84765Z"/>
  </g>
  <g id="Regular-S" transform="matrix(1 0 0 1 1393.45 696)">
   <path class="monochrome-0 multicolor-0:labelColor hierarchical-0:secondary SFSymbolsPreviewWireframe" d="M46.0938-1.61133L46.0938-23.7305C46.0938-25.5859 47.3633-26.8066 49.2188-26.8066L63.5742-26.8066C65.4785-26.8066 66.6504-25.5859 66.6504-23.7305L66.6504-1.61133ZM22.3145-3.41797C22.3145 2.14844 25.6836 5.41992 31.3477 5.41992L81.4453 5.41992C87.1094 5.41992 90.4785 2.14844 90.4785-3.41797L90.4785-32.2754L58.6426-58.9355C57.2754-60.1074 55.4688-60.0586 54.1504-58.9355L22.3145-32.2754ZM13.5742-33.7891C14.7949-33.7891 15.8203-34.4727 16.6992-35.2051L55.127-67.4805C55.5176-67.8223 56.0059-67.9688 56.3965-67.9688C56.7871-67.9688 57.2266-67.8223 57.6172-67.4805L96.0938-35.2051C96.9727-34.4727 97.998-33.7891 99.2188-33.7891C101.611-33.7891 103.027-35.498 103.027-37.3047C103.027-38.2812 102.588-39.3555 101.66-40.1367L61.2793-74.0234C59.7168-75.293 58.0566-75.9277 56.3965-75.9277C54.7363-75.9277 53.0273-75.293 51.5137-74.0234L11.1328-40.1367C10.2051-39.3555 9.76562-38.2812 9.76562-37.3047C9.76562-35.498 11.1816-33.7891 13.5742-33.7891ZM80.8594-55.8105L91.4062-46.9238L91.4062-64.5996C91.4062-66.4551 90.1855-67.627 88.3301-67.627L83.9355-67.627C82.1289-67.627 80.8594-66.4551 80.8594-64.5996Z"/>
   <path class="monochrome-1 multicolor-1:tintColor hierarchical-1:primary SFSymbolsPreviewWireframe" d="M101.511 18.3906C115.33 18.3906 126.902 6.8184 126.902-7C126.902-20.916 115.427-32.3906 101.511-32.3906C87.5461-32.3906 76.1204-20.916 76.1204-7C76.1204 6.9649 87.5461 18.3906 101.511 18.3906Z"/>
   <path class="monochrome-2 multicolor-2:tintColor hierarchical-2:primary SFSymbolsPreviewWireframe" d="M99.802 13.1172L103.171 13.1172C104.343 13.1172 105.271 12.3848 105.564 11.1641L106.491 7.3066C107.029 7.1602 107.663 6.916 108.201 6.6719L111.57 8.6738C112.595 9.3086 113.718 9.3086 114.597 8.3809L116.892 6.0859C117.722 5.207 117.82 4.084 117.136 2.9609L115.134-0.4082C115.476-0.9453 115.623-1.4336 115.818-1.9707L119.675-2.8984C120.896-3.1426 121.677-4.0703 121.677-5.291L121.677-8.6113C121.677-9.7832 120.847-10.6621 119.675-10.9551L115.867-11.8828C115.623-12.5664 115.379-13.0059 115.183-13.4453L117.283-16.9121C117.918-17.9375 117.82-19.207 116.99-19.9883L114.597-22.2832C113.767-23.1133 112.595-23.3086 111.619-22.7227L108.201-20.5742C107.566-20.916 107.029-21.0625 106.491-21.2578L105.564-25.1152C105.271-26.2871 104.343-27.0684 103.171-27.0684L99.802-27.0684C98.5813-27.0684 97.6047-26.2383 97.3606-25.1152L96.4817-21.3066C95.7981-21.0625 95.261-20.916 94.7239-20.5742L91.3547-22.7227C90.427-23.2598 89.2063-23.1133 88.3274-22.2832L86.0325-19.9883C85.2512-19.1582 84.9582-17.9375 85.593-16.9121L87.7414-13.4453C87.5461-13.0059 87.302-12.4687 87.0578-11.8828L83.2981-10.9551C82.1262-10.6621 81.345-9.7344 81.345-8.6113L81.345-5.291C81.345-4.0703 82.1262-3.1426 83.2981-2.8984L87.1067-1.9707C87.3508-1.4336 87.5461-0.9453 87.7903-0.4082L85.7883 3.0098C85.1536 4.084 85.2512 5.2559 86.0813 6.0859L88.3274 8.3809C89.2063 9.3086 90.3782 9.3086 91.4036 8.6738L94.8215 6.6719C95.4075 6.9649 95.9446 7.1602 96.4817 7.3066L97.3606 11.1641C97.6047 12.3359 98.5813 13.1172 99.802 13.1172ZM101.511-0.5059C97.8489-0.5059 95.0168-3.3379 95.0168-6.9512C95.0168-10.5156 97.8489-13.3965 101.511-13.4453C104.978-13.4941 107.956-10.5156 107.956-6.9512C107.956-3.3379 104.978-0.5059 101.511-0.5059Z"/>
  </g>
  <g id="Ultralight-S" transform="matrix(1 0 0 1 508.469 696)">
   <path class="monochrome-0 multicolor-0:labelColor hierarchical-0:secondary SFSymbolsPreviewWireframe" d="M40.6446 0.749981L40.6446-23.5488C40.6446-24.8594 41.5054-25.6714 42.816-25.6714L59.669-25.6714C60.9829-25.6714 61.837-24.8594 61.837-23.5488L61.837 0.749981ZM18.9995-3.59961C18.9995 0.513685 21.4605 2.96779 25.5806 2.96779L76.9043 2.96779C81.0245 2.96779 83.4854 0.513685 83.4854-3.59961L83.4854-40.7216L53.6929-65.747C51.917-67.1914 50.4283-67.1425 48.7012-65.747L18.9995-40.8124ZM10.895-38.4663C11.253-38.4663 11.461-38.6049 11.7496-38.8379L49.4507-70.4775C50.023-71.001 50.6021-71.2383 51.2652-71.2383C51.8829-71.2383 52.4585-71.001 53.0308-70.4775L90.7354-38.8379C91.024-38.6049 91.232-38.4663 91.5899-38.4663C92.3023-38.4663 92.7193-38.9492 92.7193-39.4844C92.7193-39.916 92.5523-40.1728 92.1241-40.5454L54.5132-72.1162C53.4502-73.0225 52.335-73.4756 51.2652-73.4756C50.1499-73.4756 49.0313-73.0225 47.9717-72.1162L10.3608-40.5454C9.93262-40.1728 9.76562-39.916 9.76562-39.4844C9.76562-38.9492 10.228-38.4663 10.895-38.4663ZM77.9077-51.0879L83.5049-46.3335L83.5049-61.875C83.5049-62.7315 82.92-63.313 82.0635-63.313L79.3492-63.313C78.4961-63.313 77.9077-62.7315 77.9077-61.875Z"/>
   <path class="monochrome-1 multicolor-1:tintColor hierarchical-1:primary SFSymbolsPreviewWireframe" d="M92.259 14.3492C103.898 14.3492 113.609 4.72955 113.609-6.99995C113.609-18.7362 103.95-28.3492 92.259-28.3492C80.5646-28.3492 70.8644-18.6908 70.8644-6.99995C70.8644 4.73985 80.5646 14.3492 92.259 14.3492Z"/>
   <path class="monochrome-2 multicolor-2:tintColor hierarchical-2:primary SFSymbolsPreviewWireframe" d="M90.7316 11.3917L93.6921 11.3917C94.8185 11.3917 95.6554 10.7047 95.903 9.57475L96.7399 6.08065C97.2316 5.93415 97.821 5.68995 98.3127 5.44585L101.41 7.31155C102.344 7.90095 103.377 7.90095 104.21 7.06405L106.323 4.90535C107.063 4.11725 107.16 3.13045 106.522 2.09815L104.702-0.99845C104.998-1.49015 105.145-1.93305 105.34-2.42475L108.834-3.26165C109.964-3.50585 110.654-4.38815 110.654-5.47265L110.654-8.52045C110.654-9.60155 109.915-10.3442 108.834-10.6372L105.389-11.5195C105.145-12.1123 104.9-12.5517 104.751-12.9911L106.669-16.14C107.258-17.0747 107.115-18.2079 106.376-18.9438L104.21-21.0117C103.425-21.7963 102.344-21.9462 101.459-21.4058L98.3127-19.4389C97.7233-19.7353 97.2316-19.8818 96.7399-20.0771L95.903-23.6166C95.6554-24.6977 94.8185-25.4335 93.6921-25.4335L90.7316-25.4335C89.6471-25.4335 88.7614-24.6488 88.5173-23.6166L87.7292-20.1259C87.091-19.8818 86.5993-19.7353 86.0622-19.4389L82.9655-21.4058C82.1286-21.9429 80.9987-21.7963 80.2106-21.0117L78.1427-18.9438C77.4069-18.1591 77.1139-17.0747 77.7033-16.14L79.6701-12.9911C79.5202-12.5517 79.276-12.06 79.0773-11.5195L75.59-10.6372C74.5089-10.3442 73.8185-9.55265 73.8185-8.52045L73.8185-5.47265C73.8185-4.38815 74.5089-3.50585 75.59-3.26165L79.0807-2.42475C79.3249-1.93305 79.5202-1.49015 79.7189-0.99845L77.8986 2.14705C77.3092 3.13045 77.4069 4.16605 78.1462 4.90535L80.2106 7.06405C80.9987 7.90095 82.0798 7.85555 83.0143 7.31155L86.1598 5.44585C86.7458 5.73885 87.2375 5.93415 87.7292 6.08065L88.5173 9.57475C88.7614 10.6558 89.6471 11.3917 90.7316 11.3917ZM92.259-1.05075C88.9147-1.05075 86.3097-3.70115 86.3097-6.99655C86.3097-10.2432 88.9147-12.9423 92.259-12.9911C95.4079-13.0399 98.1594-10.2432 98.1594-6.99655C98.1594-3.70115 95.4079-1.05075 92.259-1.05075Z"/>
  </g>
 </g>
</svg>
